# xmcd
#
# Track frame offsets:
#	150
#	2877
#	24221
#	40726
#	59692
#	76246
#	100586
#	113335
#	132549
#	154460
#	174654
#
# Disc length: 2551 seconds
#
# Revision: 7
# Processed by: cddbd v1.5.2PL0 Copyright (c) Steve Scherf et al.
# Submitted via: Jack! The Knife 20 Magnifico
#
DISCID=8209f50b
DTITLE=Cesare Cremonini - Logico
DYEAR=2014
DGENRE=Pop
TTITLE0=Intro Blu
TTITLE1=Logico #1
TTITLE2=GreyGoose
TTITLE3=Io e Anna
TTITLE4=John Wayne
TTITLE5=Fare e Disfare
TTITLE6=Vent'anni Per Sempre
TTITLE7=Quando Sarò Milionario
TTITLE8=Se C'era Una Volta L'amore (Ho Dovuto Ammazzarlo)
TTITLE9=Cuore di Cane
TTITLE10=Cos'hai Nella Testa?
EXTD=Walter Mameli
EXTT0=Cremonini, Magnanini
EXTT1=Cremonini, Magnanini
EXTT2=Cremonini, Magnanini
EXTT3=Cremonini, Magnanini
EXTT4=Cremonini, Magnanini
EXTT5=Cremonini, Magnanini
EXTT6=Cremonini, Magnanini
EXTT7=Cremonini, Magnanini
EXTT8=Cremonini, Magnanini
EXTT9=Cremonini, Magnanini
EXTT10=Cremonini, Magnanini
PLAYORDER=
